<svg width="42" height="42" viewBox="0 0 42 42" xmlns="http://www.w3.org/2000/svg">
  <circle cx="21" cy="21" r="21" fill="#1a1a1a"/>
  <path d="M21 11.5a9.5 9.5 0 0 0-8.1 14.4l-1.2 3.7 3.8-1.2A9.5 9.5 0 1 0 21 11.5zm4.6 12.7c-.2.6-1.2 1.1-1.6 1.2-.4.1-1.1-.2-3.3-1.3-2.7-1.3-4.4-3.9-4.5-4.1-.2-.2-1.2-1.6-1.2-3 0-1.4.7-2 1-2.3.3-.3.6-.4.8-.4h.5c.2 0 .5-.05.8.6.3.65.9 2.1.9 2.25.05.15.1.35-.05.55l-.45.55c-.2.2-.4.4-.2.75.2.3.9 1.5 2 2.4 1.3 1.1 2.4 1.5 2.7 1.65.3.15.55.1.75-.1.2-.2.85-.95 1.1-1.3.2-.3.4-.25.75-.1.3.1 1.9.9 2.2 1.05.3.15.5.25.6.4.05.2 0 .9-.2 1.45z" fill="white"/>
</svg>
